<svg width="888" height="443" viewBox="0 0 888 443" fill="none" xmlns="http://www.w3.org/2000/svg">
<g clip-path="url(#clip0)">
<path d="M888 341.123H0V343.364H888V341.123Z" fill="white"/>
<path d="M857.378 300.828C873.336 300.828 886.272 287.892 886.272 271.935C886.272 255.977 873.336 243.041 857.378 243.041C841.421 243.041 828.484 255.977 828.484 271.935C828.484 287.892 841.421 300.828 857.378 300.828Z" fill="#FF66C2"/>
<path d="M869.392 313.082C871.423 313.082 873.069 311.435 873.069 309.404C873.069 307.373 871.423 305.727 869.392 305.727C867.361 305.727 865.714 307.373 865.714 309.404C865.714 311.435 867.361 313.082 869.392 313.082Z" fill="white"/>
<path d="M327.528 169.829H442.747V178.987H338.09V247.911H436.506V257.069H338.09V332.741H443.948V341.898H327.529L327.528 169.829ZM453.069 169.829H465.311L519.56 245.501L575.009 169.829L650.429 73.7083L526.521 253.454L590.371 341.898H577.649L519.56 261.407L461.23 341.898H448.748L513.079 253.454L453.069 169.829ZM594.932 178.987V169.829H726.234V178.987H665.744V341.898H655.182V178.987H594.932ZM183.385 169.829H196.587L378.637 442.25L303.405 341.898L194.427 182.843L193.947 341.898H183.385V169.829ZM725.169 329.977C724.409 329.988 723.662 329.773 723.025 329.359C722.387 328.944 721.887 328.35 721.588 327.65C721.289 326.951 721.205 326.179 721.347 325.431C721.488 324.684 721.849 323.996 722.382 323.454C722.916 322.912 723.599 322.542 724.344 322.389C725.089 322.237 725.863 322.309 726.566 322.598C727.27 322.886 727.872 323.377 728.296 324.009C728.72 324.641 728.946 325.384 728.946 326.144C728.959 326.647 728.871 327.146 728.687 327.614C728.503 328.081 728.226 328.507 727.873 328.864C727.521 329.222 727.1 329.505 726.635 329.696C726.17 329.888 725.672 329.983 725.169 329.977ZM735.548 319.894H741.199C741.276 322.955 743.511 325.013 746.799 325.013C750.473 325.013 752.553 322.801 752.553 318.659V292.423H758.308V318.685C758.308 326.144 753.992 330.44 746.851 330.44C740.146 330.44 735.548 326.273 735.548 319.894ZM765.835 319.56H771.537C772.025 323.083 775.468 325.321 780.426 325.321C785.05 325.321 788.44 322.929 788.44 319.637C788.44 316.807 786.283 315.11 781.376 313.952L776.598 312.795C769.893 311.226 766.836 307.985 766.836 302.532C766.836 295.921 772.231 291.523 780.323 291.523C787.85 291.523 793.347 295.921 793.681 302.172H788.081C787.541 298.751 784.561 296.616 780.246 296.616C775.699 296.616 772.668 298.802 772.668 302.146C772.668 304.795 774.62 306.313 779.449 307.444L783.534 308.448C791.138 310.222 794.272 313.309 794.272 318.891C794.272 325.99 788.774 330.44 779.989 330.44C771.769 330.44 766.246 326.196 765.835 319.56Z" fill="#FF66C2"/>
<path d="M119.864 74.1587C125.817 74.1587 130.642 69.333 130.642 63.3804C130.642 57.4277 125.817 52.6021 119.864 52.6021C113.911 52.6021 109.086 57.4277 109.086 63.3804C109.086 69.333 113.911 74.1587 119.864 74.1587Z" fill="#FF66C2"/>
<path d="M122.867 52.8987C124.732 52.899 126.566 53.3833 128.188 54.3042C129.81 55.2252 131.165 56.5513 132.121 58.1529C133.077 59.7545 133.602 61.5769 133.643 63.4418C133.684 65.3066 133.24 67.1502 132.355 68.7923C133.29 67.6232 133.97 66.2721 134.354 64.8254C134.737 63.3786 134.815 61.8679 134.582 60.3894C134.35 58.9109 133.812 57.497 133.002 56.238C132.193 54.9789 131.13 53.9023 129.882 53.0767C128.633 52.251 127.227 51.6945 125.751 51.4426C124.276 51.1906 122.764 51.2488 121.313 51.6134C119.861 51.978 118.501 52.6409 117.32 53.5601C116.139 54.4792 115.162 55.6343 114.452 56.9518C115.46 55.6869 116.739 54.6655 118.196 53.9638C119.653 53.262 121.25 52.898 122.867 52.8987Z" fill="#FF66C2"/>
<path d="M99.7232 63.3574C117.209 63.3574 131.384 49.1822 131.384 31.6962C131.384 14.2101 117.209 0.0349121 99.7232 0.0349121C82.2372 0.0349121 68.0619 14.2101 68.0619 31.6962C68.0619 49.1822 82.2372 63.3574 99.7232 63.3574Z" fill="#FF66C2"/>
<path d="M74.8743 12.0519C80.3298 5.9165 87.9556 2.14061 96.1423 1.52122C104.329 0.901833 112.436 3.48739 118.753 8.73219C118.494 8.48608 118.238 8.23797 117.969 7.99881C111.691 2.4302 103.46 -0.418694 95.0835 0.0780314C86.7069 0.574756 78.8701 4.37648 73.2949 10.6479C67.7197 16.9194 64.8621 25.1476 65.35 33.5247C65.8379 41.9018 69.6314 49.7426 75.897 55.3244C76.166 55.5636 76.4424 55.7889 76.7172 56.0172C70.7686 50.3585 67.2512 42.6101 66.9073 34.4071C66.5635 26.2042 69.4201 18.1886 74.8743 12.0519Z" fill="#FF66C2"/>
<path d="M130.254 112.406L135.124 140.005L140.806 194.391C140.806 194.391 142.43 216.307 135.124 217.119C127.819 217.931 129.442 192.767 129.442 192.767L121.325 146.499L118.078 118.088L130.254 112.406Z" fill="#FBBEBE"/>
<path d="M100.22 58.0203C110.979 58.0203 119.701 49.2982 119.701 38.5389C119.701 27.7795 110.979 19.0574 100.22 19.0574C89.4607 19.0574 80.7385 27.7795 80.7385 38.5389C80.7385 49.2982 89.4607 58.0203 100.22 58.0203Z" fill="#FBBEBE"/>
<path d="M84.797 46.656L81.55 65.326L102.655 70.196V52.338L84.797 46.656Z" fill="#FBBEBE"/>
<path d="M34.47 319.397L32.035 335.631L41.776 336.443L47.458 322.644L34.47 319.397Z" fill="#FBBEBE"/>
<path d="M109.961 321.832L112.396 334.82H122.948V322.644L109.961 321.832Z" fill="#FBBEBE"/>
<path d="M117.266 140.005L63.6922 148.122L60.4453 186.273L53.9515 241.471L30.4114 321.832L53.9515 324.267L96.1614 216.307L106.714 325.079H131.066L132.689 213.872C132.689 213.872 133.501 152.181 120.513 148.122L117.266 140.005Z" fill="black"/>
<path d="M44.2108 334.008L30.4114 331.573L24.7293 359.172C24.7293 359.172 14.1768 396.511 27.9762 393.264C41.7756 390.017 39.3404 359.172 39.3404 359.172L44.2108 334.008Z" fill="black"/>
<path d="M109.961 334.008L123.76 331.573L129.442 359.172C129.442 359.172 139.995 396.511 126.195 393.264C112.396 390.017 114.831 359.172 114.831 359.172L109.961 334.008Z" fill="black"/>
<path d="M42.5873 100.23C42.5873 100.23 36.0935 134.323 39.3404 142.44C42.5873 150.557 61.2571 178.968 61.2571 178.968L66.9392 166.792L50.7046 135.135L56.3867 102.665L42.5873 100.23Z" fill="#FBBEBE"/>
<path d="M106.714 76.6901L105.09 64.5142C105.09 64.5142 84.7972 61.2673 81.5503 55.5852L75.8682 65.3259L57.1984 69.3846C57.1984 69.3846 46.6459 69.3846 45.8342 77.5019C45.0225 85.6192 40.1521 101.854 40.1521 101.854L54.7632 106.724L66.1274 148.934L114.831 141.628L112.396 119.712L114.831 114.03L117.266 120.523L132.689 117.277C132.689 117.277 133.501 88.0543 118.078 83.184L106.714 76.6901Z" fill="black"/>
<path d="M82.014 17.207V37.599H86.737L92.747 31.16L91.942 37.599H112.817L111.529 31.16L114.105 37.599H117.432V17.207H82.014Z" fill="#FF66C2"/>
<path d="M858.878 343.354H855.878L857.378 272.354L858.878 343.354Z" fill="white"/>
<path d="M858 334.354L856.538 333.23L870.865 306.829L858 334.354Z" fill="white"/>
</g>
<defs>
<clipPath id="clip0">
<rect width="888" height="442.25" fill="white"/>
</clipPath>
</defs>
</svg>
